<svg width="23" height="22" viewBox="0 0 23 22" fill="none" xmlns="http://www.w3.org/2000/svg">
<path id="Vector" d="M3.64286 0C1.90937 0 0.5 1.40937 0.5 3.14286V18.8571C0.5 20.5906 1.90937 22 3.64286 22H19.3571C21.0906 22 22.5 20.5906 22.5 18.8571V3.14286C22.5 1.40937 21.0906 0 19.3571 0H3.64286ZM18.2326 4.125L13.1353 9.94911L19.1312 17.875H14.4366L10.7634 13.0674L6.55491 17.875H4.22232L9.67321 11.6433L3.92277 4.125H8.73527L12.0598 8.52009L15.9 4.125H18.2326ZM16.3763 16.4804L8.03304 5.44598H6.6433L15.0799 16.4804H16.3714H16.3763Z" fill="#23A6F0"/>
</svg>
